<svg xmlns="http://www.w3.org/2000/svg" height="20" width="20" viewBox="0 0 512 512"><!--!Font Awesome Free 6.5.2 by @fontawesome - https://fontawesome.com License - https://fontawesome.com/license/free Copyright 2024 Fonticons, Inc.--><path d="M505 199.4l-22.6-22.6c-9.4-9.4-24.6-9.4-33.9 0l-5.7 5.7L329.6 69.3l5.7-5.7c9.4-9.4 9.4-24.6 0-33.9L312.6 7c-9.4-9.4-24.6-9.4-33.9 0L154.2 131.5c-9.4 9.4-9.4 24.6 0 33.9l22.6 22.6c9.4 9.4 24.6 9.4 33.9 0l5.7-5.7 39.6 39.6-81 81-5.7-5.7c-12.5-12.5-32.8-12.5-45.3 0L9.4 412.1c-12.5 12.5-12.5 32.8 0 45.3l45.3 45.3c12.5 12.5 32.8 12.5 45.3 0l114.7-114.7c12.5-12.5 12.5-32.8 0-45.3l-5.7-5.7 81-81 39.6 39.6-5.7 5.7c-9.4 9.4-9.4 24.6 0 33.9l22.6 22.6c9.4 9.4 24.6 9.4 33.9 0l124.5-124.5c9.4-9.4 9.4-24.6 0-33.9z"/></svg>