<?xml version="1.0" ?>
<!-- Uploaded to: SVG Repo, www.svgrepo.com, Generator: SVG Repo Mixer Tools -->
<svg width="800px" height="800px" viewBox="-3 0 36 36" xmlns="http://www.w3.org/2000/svg">
<g fill="#4A4A4A" fill-rule="evenodd" transform="translate(-9 -6)">
<path d="M16.9999992 6L30.7180574 6C31.1638168 6 31.3254599 6.04641281 31.4884229 6.13356635 31.6513858 6.2207199 31.7792801 6.34861419 31.8664336 6.51157715 31.9535872 6.67454011 32 6.83618323 32 7.2819426L32 18.7180574C32 19.1638168 31.9535872 19.3254599 31.8664336 19.4884229 31.7792801 19.6513858 31.6513858 19.7792801 31.4884229 19.8664336 31.3254599 19.9535872 31.1638168 20 30.7180574 20L17.3214083 20C16.8764951 20 16.7151416 19.9538116 16.5523813 19.8670053 16.389621 19.780199 16.2617734 19.6527748 16.1744277 19.4903035 16.0870819 19.3278321 16.0403584 19.1666327 16.0388823 18.721722L16.0000047 7.00331764C15.9981724 6.45103592 16.4443999 6.00183778 16.9966816 6.0000055 16.9977874 6.00000183 16.9988933 6 16.9999992 6zM34.9999983 6L38.9999984 6 38.9999984 20 35.2942741 20C34.8487793 20 34.6872266 19.9536574 34.5243269 19.8666124 34.3614272 19.7795674 34.2335474 19.6518201 34.1463336 19.4890108 34.0591198 19.3262014 34.0126097 19.1646969 34.0121478 18.7192023L33.9999988 7.00103677C33.9994262 6.44875231 34.4466771 6.00057313 34.9989615 6.00000054 34.9993071 6.00000018 34.9996527 6 34.9999983 6z"/>
<path d="M10.0000016,6 L14.0000017,6 L14.0000017,20 L10.2942775,20 C9.84878258,20 9.68722995,19.9536574 9.52433025,19.8666124 C9.36143056,19.7795674 9.23355074,19.6518201 9.14633693,19.4890108 C9.05912313,19.3262014 9.01261303,19.1646969 9.01215116,18.7192023 L9.00000216,7.00103677 C8.99942957,6.44875231 9.4466804,6.00057313 9.99896485,6.00000054 C9.99931044,6.00000018 9.99965603,6 10.0000016,6 Z" transform="matrix(-1 0 0 1 23 0)"/>
<path d="M22.5,22 L25.5,22 C26.0522847,22 26.5,22.4477153 26.5,23 L26.5,39.5 C26.5,40.8807119 25.3807119,42 24,42 L24,42 C22.6192881,42 21.5,40.8807119 21.5,39.5 L21.5,23 C21.5,22.4477153 21.9477153,22 22.5,22 Z"/>
</g>
</svg>